<?xml version="1.0" encoding="UTF-8"?>
<svg id="_圖層_1" data-name="圖層 1" xmlns="http://www.w3.org/2000/svg" width="300" height="60" viewBox="0 0 300 60">
  <defs>
    <style>
      .cls-1, .cls-2 {
        fill: #231815;
      }

      .cls-3 {
        fill: none;
        stroke: #231815;
        stroke-miterlimit: 22.93;
        stroke-width: .15px;
      }

      .cls-3, .cls-4, .cls-2, .cls-5 {
        fill-rule: evenodd;
      }

      .cls-4 {
        fill: #07639c;
      }

      .cls-5 {
        fill: #ea99bf;
      }
    </style>
  </defs>
  <rect class="cls-1" x="99.8" y="36.2" width="200.2" height=".47"/>
  <polygon class="cls-4" points="61.26 24.06 46.49 45.28 35.93 28.9 25.38 45.28 10.61 24.06 0 24.06 22.19 55.91 28.11 55.91 35.93 43.3 43.76 55.91 49.68 55.91 71.87 24.06 61.26 24.06"/>
  <path class="cls-5" d="M51.89,10.16c-.5-3.61-3.38-6.42-6.69-7-3.72-.65-7.52,1.01-9.35,4.99-1.83-3.98-5.64-5.64-9.36-4.99-3.32.58-6.19,3.39-6.69,7-1.24,8.9,9.27,13.71,16.05,16.28h0c6.78-2.57,17.29-7.38,16.05-16.28Z"/>
  <path class="cls-2" d="M115.25,56.61l-1.48-5.48-1.5,5.48c-.12.42-.21.72-.28.9-.07.18-.19.34-.36.49-.17.14-.4.22-.68.22-.23,0-.42-.04-.56-.13-.15-.09-.27-.21-.36-.36-.09-.16-.17-.34-.22-.56-.06-.21-.11-.41-.16-.59l-1.52-6.16c-.09-.36-.14-.63-.14-.82,0-.24.08-.44.25-.6.17-.16.37-.24.62-.24.34,0,.56.11.68.32.11.22.22.53.3.94l1.2,5.34,1.34-5c.1-.38.19-.68.27-.87.08-.2.21-.37.39-.52.18-.15.42-.22.73-.22s.56.08.73.23c.17.15.29.32.36.5.07.18.16.47.27.89l1.36,5,1.2-5.34c.06-.28.11-.5.16-.66.05-.16.14-.3.27-.42.13-.13.31-.19.55-.19s.45.08.61.24c.17.16.25.36.25.6,0,.17-.04.44-.14.82l-1.52,6.16c-.1.42-.19.72-.26.91-.07.19-.19.36-.35.51-.16.15-.4.22-.7.22-.28,0-.51-.07-.68-.21-.17-.14-.29-.3-.36-.48-.07-.18-.16-.48-.28-.91Z"/>
  <path class="cls-2" d="M127.25,57.01l-.44-1.15h-3.72l-.44,1.17c-.17.46-.32.77-.44.93-.12.16-.32.24-.59.24-.23,0-.44-.09-.62-.26s-.27-.36-.27-.58c0-.13.02-.26.06-.39.04-.13.11-.32.21-.56l2.34-5.94c.07-.17.15-.38.24-.61.09-.24.19-.44.3-.6.11-.16.25-.29.42-.38.17-.1.39-.15.64-.15s.48.05.65.15c.17.1.31.22.42.38.11.15.2.32.27.5.07.18.17.41.28.71l2.39,5.9c.19.45.28.78.28.98s-.09.41-.26.58c-.18.18-.39.26-.64.26-.14,0-.27-.03-.38-.08-.1-.05-.19-.12-.26-.21-.07-.09-.14-.23-.23-.41-.08-.19-.15-.35-.21-.49h0ZM123.58,54.47h2.73l-1.38-3.77-1.36,3.77Z"/>
  <path class="cls-2" d="M133.04,49.87v6.66h3.76c.3,0,.53.07.69.22.16.15.24.33.24.55s-.08.41-.24.55c-.16.14-.39.21-.69.21h-4.48c-.4,0-.69-.09-.87-.27-.18-.18-.27-.47-.27-.87v-7.05c0-.37.09-.65.25-.84.17-.19.39-.28.66-.28s.5.09.68.28c.17.19.26.47.26.85Z"/>
  <path class="cls-2" d="M143.94,50.43h-2.02v6.64c0,.38-.09.67-.26.85-.17.19-.39.28-.66.28s-.5-.09-.67-.28c-.17-.19-.26-.47-.26-.85v-6.64h-2.02c-.32,0-.55-.07-.71-.21-.15-.14-.23-.33-.23-.56s.08-.42.24-.56c.16-.14.39-.21.7-.21h5.9c.32,0,.56.07.72.21.16.14.23.33.23.56s-.08.42-.24.56c-.16.14-.39.21-.71.21Z"/>
  <path class="cls-2" d="M146.38,55.91l4.7-5.62h-4.04c-.28,0-.5-.06-.64-.19-.14-.13-.22-.29-.22-.49s.07-.38.22-.52c.14-.13.36-.2.64-.2h5.21c.67,0,1.01.32,1.01.94,0,.3-.06.54-.17.72-.11.18-.34.47-.68.87l-4.4,5.23h4.85c.29,0,.5.06.64.18.14.12.21.28.21.5s-.07.39-.21.52c-.14.13-.36.19-.64.19h-5.95c-.4,0-.71-.09-.91-.27-.2-.18-.31-.42-.31-.73,0-.1.02-.2.05-.29.03-.09.08-.17.13-.25.06-.08.13-.17.23-.29.1-.12.19-.22.26-.31Z"/>
  <path class="cls-2" d="M173.95,56.67l-1.47-5.83v6.32c0,.35-.08.61-.23.79-.16.17-.36.26-.62.26s-.45-.09-.61-.26c-.16-.17-.24-.43-.24-.79v-7.24c0-.4.1-.67.31-.81.21-.14.49-.21.84-.21h.58c.35,0,.59.03.75.09.16.06.27.17.35.34.07.16.16.43.26.79l1.33,5.02,1.33-5.02c.1-.37.18-.63.26-.79.07-.16.19-.27.35-.34.16-.06.41-.09.75-.09h.57c.35,0,.63.07.84.21.21.14.31.41.31.81v7.24c0,.35-.08.61-.23.79-.16.17-.36.26-.62.26-.24,0-.45-.09-.61-.26-.16-.17-.24-.44-.24-.79v-6.32l-1.47,5.83c-.1.38-.17.66-.23.83-.06.17-.17.34-.33.48-.16.15-.39.22-.68.22-.22,0-.4-.05-.55-.14-.15-.09-.27-.21-.35-.36-.08-.15-.15-.31-.2-.48-.05-.18-.1-.36-.15-.55Z"/>
  <path class="cls-2" d="M188.18,50.33h-4.18v2.25h3.85c.28,0,.49.06.63.19.14.13.21.29.21.5s-.07.38-.2.51c-.14.13-.35.2-.64.2h-3.85v2.61h4.32c.29,0,.51.07.66.2.15.13.22.32.22.54s-.07.39-.22.53c-.15.13-.37.2-.66.2h-5.04c-.4,0-.69-.09-.87-.27s-.27-.47-.27-.87v-6.88c0-.27.04-.48.12-.65.08-.17.2-.29.37-.37s.38-.11.65-.11h4.89c.3,0,.52.07.66.2.14.13.22.3.22.52s-.07.39-.22.52c-.14.13-.36.2-.66.2Z"/>
  <path class="cls-2" d="M193.74,49.86l3.56,5.4v-5.45c0-.35.08-.62.23-.79.15-.18.36-.27.61-.27s.48.09.63.26c.15.18.23.44.23.8v7.2c0,.8-.33,1.2-1,1.2-.17,0-.32-.02-.45-.07-.13-.05-.26-.12-.37-.23-.12-.1-.22-.23-.32-.37-.1-.14-.2-.28-.3-.43l-3.48-5.33v5.36c0,.35-.08.61-.24.79-.16.18-.37.27-.63.27s-.47-.09-.63-.27c-.16-.18-.24-.45-.24-.79v-7.06c0-.3.03-.53.1-.71.08-.19.21-.34.39-.46.18-.12.38-.18.59-.18.17,0,.31.03.43.08.12.06.22.13.31.22.09.09.18.21.27.36.09.14.19.3.29.46Z"/>
  <path class="cls-2" d="M207.62,50.43h-2.02v6.64c0,.38-.09.67-.26.85-.17.19-.39.28-.66.28s-.5-.09-.67-.28c-.17-.19-.26-.47-.26-.85v-6.64h-2.02c-.32,0-.55-.07-.71-.21-.15-.14-.23-.33-.23-.56s.08-.42.24-.56c.16-.14.39-.21.7-.21h5.9c.32,0,.56.07.72.21.16.14.23.33.23.56s-.08.42-.24.56c-.16.14-.39.21-.71.21Z"/>
  <path class="cls-2" d="M215.35,57.01l-.44-1.15h-3.72l-.44,1.17c-.17.46-.32.77-.44.93-.12.16-.32.24-.59.24-.23,0-.44-.09-.62-.26s-.27-.36-.27-.58c0-.13.02-.26.06-.39.04-.13.11-.32.21-.56l2.34-5.94c.07-.17.15-.38.24-.61.09-.24.19-.44.3-.6.11-.16.25-.29.42-.38s.39-.15.64-.15.48.05.65.15c.17.1.31.22.42.38.11.15.2.32.27.5.07.18.17.41.28.71l2.39,5.9c.19.45.28.78.28.98s-.09.41-.26.58-.39.26-.64.26c-.14,0-.27-.03-.38-.08-.1-.05-.19-.12-.26-.21-.07-.09-.14-.23-.23-.41-.08-.19-.15-.35-.21-.49h0ZM211.68,54.47h2.73l-1.38-3.77-1.36,3.77Z"/>
  <path class="cls-2" d="M221.14,49.87v6.66h3.76c.3,0,.53.07.69.22.16.15.24.33.24.55s-.08.41-.24.55c-.16.14-.39.21-.69.21h-4.48c-.4,0-.69-.09-.87-.27-.18-.18-.27-.47-.27-.87v-7.05c0-.37.09-.65.25-.84s.39-.28.66-.28.5.09.68.28.26.47.26.85Z"/>
  <path class="cls-2" d="M250.83,55.16c0,.29-.07.61-.22.95-.14.34-.37.67-.68,1-.31.33-.7.59-1.18.8-.48.2-1.04.3-1.67.3-.48,0-.92-.04-1.32-.14-.39-.09-.75-.23-1.08-.43-.32-.19-.62-.45-.89-.76-.24-.29-.45-.61-.62-.96-.17-.36-.3-.74-.38-1.14-.09-.4-.13-.83-.13-1.29,0-.74.11-1.4.32-1.98.21-.58.52-1.08.92-1.5.4-.41.87-.73,1.4-.95.54-.22,1.11-.32,1.72-.32.74,0,1.4.15,1.98.44.58.29,1.02.66,1.33,1.1.31.43.46.84.46,1.23,0,.21-.08.4-.23.56-.15.16-.33.24-.54.24-.24,0-.42-.06-.53-.17-.12-.11-.25-.31-.4-.58-.24-.45-.53-.79-.85-1.02-.33-.22-.73-.34-1.21-.34-.76,0-1.37.29-1.82.87-.45.58-.68,1.4-.68,2.47,0,.71.1,1.3.3,1.78.2.47.48.82.85,1.06.37.23.79.35,1.29.35.53,0,.98-.13,1.35-.4.37-.26.65-.65.83-1.17.08-.24.18-.44.29-.59.11-.15.3-.23.56-.23.22,0,.41.08.57.23.16.15.24.35.24.57Z"/>
  <path class="cls-2" d="M254.95,49.87v6.66h3.76c.3,0,.53.07.69.22.16.15.24.33.24.55s-.08.41-.24.55c-.16.14-.39.21-.69.21h-4.48c-.4,0-.69-.09-.87-.27-.18-.18-.27-.47-.27-.87v-7.05c0-.37.09-.65.25-.84s.39-.28.66-.28.5.09.68.28c.17.19.26.47.26.85Z"/>
  <path class="cls-2" d="M261.57,57.07v-7.21c0-.37.09-.65.26-.84s.39-.28.66-.28.5.09.68.28c.17.19.26.47.26.85v7.21c0,.38-.09.66-.26.85-.17.19-.4.28-.68.28s-.49-.09-.66-.28c-.17-.19-.26-.47-.26-.85Z"/>
  <path class="cls-2" d="M268.56,49.86l3.56,5.4v-5.45c0-.35.08-.62.23-.79.15-.18.36-.27.61-.27s.48.09.63.26c.15.18.23.44.23.8v7.2c0,.8-.33,1.2-1,1.2-.17,0-.32-.02-.45-.07-.13-.05-.26-.12-.37-.23-.12-.1-.22-.23-.32-.37-.1-.14-.2-.28-.3-.43l-3.48-5.33v5.36c0,.35-.08.61-.24.79-.16.18-.37.27-.63.27s-.47-.09-.63-.27c-.16-.18-.24-.45-.24-.79v-7.06c0-.3.03-.53.1-.71.08-.19.21-.34.39-.46.18-.12.38-.18.59-.18.17,0,.31.03.43.08.12.06.22.13.31.22.09.09.18.21.27.36.09.14.19.3.29.46Z"/>
  <path class="cls-2" d="M276.57,57.07v-7.21c0-.37.09-.65.26-.84s.39-.28.66-.28.5.09.68.28c.17.19.26.47.26.85v7.21c0,.38-.09.66-.26.85-.17.19-.4.28-.68.28s-.49-.09-.66-.28c-.17-.19-.26-.47-.26-.85Z"/>
  <path class="cls-2" d="M288.93,55.16c0,.29-.07.61-.22.95-.14.34-.37.67-.68,1-.31.33-.7.59-1.18.8-.48.2-1.04.3-1.67.3-.48,0-.92-.04-1.32-.14-.39-.09-.75-.23-1.08-.43-.32-.19-.62-.45-.89-.76-.24-.29-.45-.61-.62-.96-.17-.36-.3-.74-.38-1.14-.09-.4-.13-.83-.13-1.29,0-.74.11-1.4.32-1.98.21-.58.52-1.08.92-1.5.4-.41.87-.73,1.4-.95.54-.22,1.11-.32,1.72-.32.74,0,1.4.15,1.98.44.58.29,1.02.66,1.33,1.1.31.43.46.84.46,1.23,0,.21-.08.4-.23.56-.15.16-.33.24-.54.24-.24,0-.42-.06-.53-.17-.12-.11-.25-.31-.4-.58-.24-.45-.53-.79-.85-1.02-.33-.22-.73-.34-1.21-.34-.76,0-1.37.29-1.82.87-.45.58-.68,1.4-.68,2.47,0,.71.1,1.3.3,1.78.2.47.48.82.85,1.06.37.23.79.35,1.29.35.53,0,.98-.13,1.35-.4s.65-.65.83-1.17c.08-.24.18-.44.29-.59.11-.15.3-.23.56-.23.22,0,.41.08.57.23.16.15.24.35.24.57Z"/>
  <g>
    <path class="cls-2" d="M123.37,26.55h-1.35v-1.5h-17.52v1.5h-1.31V4.85h20.18v21.7h0ZM122.02,23.89V6h-17.52v17.89h17.52ZM118.82,11.06h-11.17v-3.64h11.17v3.64h0ZM117.49,10.01v-1.56h-8.57v1.56h8.57ZM119.46,20.25h-7.49l.51.86c-1.28.84-3.11,1.59-5.48,2.25l-.54-.94c1.91-.48,3.66-1.21,5.24-2.17h-4.68v-7.88h12.44v7.88h0ZM118.17,14.64v-1.22h-9.84v1.22h9.84ZM118.17,16.84v-1.18h-9.84v1.18h9.84ZM118.17,19.2v-1.31h-9.84v1.31h9.84ZM120.27,22.52l-.64.92c-1.64-.71-3.38-1.29-5.22-1.75l.56-.91c2.38.57,4.14,1.15,5.29,1.74Z"/>
    <path class="cls-3" d="M123.37,26.55h-1.35v-1.5h-17.52v1.5h-1.31V4.85h20.18v21.7h0ZM122.02,23.89V6h-17.52v17.89h17.52ZM118.82,11.06h-11.17v-3.64h11.17v3.64h0ZM117.49,10.01v-1.56h-8.57v1.56h8.57ZM119.46,20.25h-7.49l.51.86c-1.28.84-3.11,1.59-5.48,2.25l-.54-.94c1.91-.48,3.66-1.21,5.24-2.17h-4.68v-7.88h12.44v7.88h0ZM118.17,14.64v-1.22h-9.84v1.22h9.84ZM118.17,16.84v-1.18h-9.84v1.18h9.84ZM118.17,19.2v-1.31h-9.84v1.31h9.84ZM120.27,22.52l-.64.92c-1.64-.71-3.38-1.29-5.22-1.75l.56-.91c2.38.57,4.14,1.15,5.29,1.74Z"/>
    <path class="cls-2" d="M153.82,7.13h-17.97c-1.17,1.05-2.2,1.86-3.1,2.43l-.87-1c1.96-1.17,3.65-2.72,5.07-4.63l1.12.59c-.2.34-.56.8-1.1,1.39h16.84v1.22h0ZM154.13,15.55h-16.52l.74.58c-.32.51-.64.99-.96,1.44h5.08v1.18c-.53,1.76-1.61,3.3-3.22,4.62-1.61,1.33-3.61,2.34-5.99,3.04l-.82-1.1c1.95-.52,3.64-1.26,5.07-2.22-.69-.87-1.64-1.82-2.87-2.86-.43.34-.97.72-1.61,1.13l-.84-.92c2.26-1.38,3.93-3.01,5.03-4.88h-5.29v-1.27h4.32v-2.82h-2.63v-1.2h2.63v-2.15h1.31v2.15h2.96v-2.15h1.28v2.15h3.07v-2.15h1.25v2.15h3v-2.15h1.27v2.15h3.27v1.2h-3.27v2.82h3.73v1.27h0ZM149.13,14.28v-2.82h-3v2.82h3ZM144.88,14.28v-2.82h-3.07v2.82h3.07ZM140.53,14.28v-2.82h-2.96v2.82h2.96ZM141.17,18.72h-4.83c-.27.31-.52.54-.72.69,1.07.94,2.06,1.9,2.95,2.9,1.15-.97,2.02-2.16,2.61-3.58h0ZM153.88,23.25h-3.46v3.16h-1.3v-3.16h-5.8l.84-4.07h-.86v-1.22h5.83v-1.72h1.3v1.72h3.17v1.22h-3.17v2.83h3.46v1.24h0ZM149.13,22.02v-2.83h-3.71l-.51,2.83h4.22Z"/>
    <path class="cls-3" d="M153.82,7.13h-17.97c-1.17,1.05-2.2,1.86-3.1,2.43l-.87-1c1.96-1.17,3.65-2.72,5.07-4.63l1.12.59c-.2.34-.56.8-1.1,1.39h16.84v1.22h0ZM154.13,15.55h-16.52l.74.58c-.32.51-.64.99-.96,1.44h5.08v1.18c-.53,1.76-1.61,3.3-3.22,4.62-1.61,1.33-3.61,2.34-5.99,3.04l-.82-1.1c1.95-.52,3.64-1.26,5.07-2.22-.69-.87-1.64-1.82-2.87-2.86-.43.34-.97.72-1.61,1.13l-.84-.92c2.26-1.38,3.93-3.01,5.03-4.88h-5.29v-1.27h4.32v-2.82h-2.63v-1.2h2.63v-2.15h1.31v2.15h2.96v-2.15h1.28v2.15h3.07v-2.15h1.25v2.15h3v-2.15h1.27v2.15h3.27v1.2h-3.27v2.82h3.73v1.27h0ZM149.13,14.28v-2.82h-3v2.82h3ZM144.88,14.28v-2.82h-3.07v2.82h3.07ZM140.53,14.28v-2.82h-2.96v2.82h2.96ZM141.17,18.72h-4.83c-.27.31-.52.54-.72.69,1.07.94,2.06,1.9,2.95,2.9,1.15-.97,2.02-2.16,2.61-3.58h0ZM153.88,23.25h-3.46v3.16h-1.3v-3.16h-5.8l.84-4.07h-.86v-1.22h5.83v-1.72h1.3v1.72h3.17v1.22h-3.17v2.83h3.46v1.24h0ZM149.13,22.02v-2.83h-3.71l-.51,2.83h4.22Z"/>
    <path class="cls-2" d="M181.85,25.79h-1.31v-1.67h-16.88v1.64h-1.3V7.04h5.98v-3.68h1.36v3.68h4.78v-3.68h1.32v3.68h6.04v18.75h0ZM180.54,14.69v-6.32h-4.73v6.32h4.73ZM174.49,14.69v-6.32h-4.78v6.32h4.78ZM168.34,14.69v-6.32h-4.68v6.32h4.68ZM180.54,22.76v-6.73h-4.73v6.73h4.73ZM174.49,22.76v-6.73h-4.78v6.73h4.78ZM168.34,22.76v-6.73h-4.68v6.73h4.68Z"/>
    <path class="cls-3" d="M181.85,25.79h-1.31v-1.67h-16.88v1.64h-1.3V7.04h5.98v-3.68h1.36v3.68h4.78v-3.68h1.32v3.68h6.04v18.75h0ZM180.54,14.69v-6.32h-4.73v6.32h4.73ZM174.49,14.69v-6.32h-4.78v6.32h4.78ZM168.34,14.69v-6.32h-4.68v6.32h4.68ZM180.54,22.76v-6.73h-4.73v6.73h4.73ZM174.49,22.76v-6.73h-4.78v6.73h4.78ZM168.34,22.76v-6.73h-4.68v6.73h4.68Z"/>
    <path class="cls-2" d="M212.28,13.3c-1.14,1.04-2.38,2.08-3.71,3.12v7.03c0,.66-.16,1.16-.48,1.49-.32.32-.9.51-1.73.55-.84.04-1.69.06-2.57.06-.53,0-1.05,0-1.55-.03l-.36-1.32c1.26.04,2.27.06,3.05.06,1.12,0,1.78-.06,2-.17.22-.12.32-.35.32-.71v-5.95c-3.45,2.91-9.09,5.51-16.93,7.8l-.61-1.26c6.67-1.82,11.86-4.06,15.54-6.72-5.13.72-10.08,1.24-14.86,1.53l-.32-1.33c.87,0,1.75-.04,2.66-.13V5.51h3.24c1.03-1.01,1.73-1.84,2.1-2.48l1.56.31c-.33.49-.93,1.21-1.8,2.17h10.74v9.2c.72-.51,1.67-1.32,2.85-2.43l.86,1.02h0ZM207.24,8.95v-2.15h-13.15v2.15h13.15ZM207.24,12.61v-2.3h-13.15v2.3h13.15ZM207.24,15.73v-1.76h-13.15v3.22c3.48-.2,7.86-.69,13.15-1.46Z"/>
    <path class="cls-3" d="M212.28,13.3c-1.14,1.04-2.38,2.08-3.71,3.12v7.03c0,.66-.16,1.16-.48,1.49-.32.32-.9.51-1.73.55-.84.04-1.69.06-2.57.06-.53,0-1.05,0-1.55-.03l-.36-1.32c1.26.04,2.27.06,3.05.06,1.12,0,1.78-.06,2-.17.22-.12.32-.35.32-.71v-5.95c-3.45,2.91-9.09,5.51-16.93,7.8l-.61-1.26c6.67-1.82,11.86-4.06,15.54-6.72-5.13.72-10.08,1.24-14.86,1.53l-.32-1.33c.87,0,1.75-.04,2.66-.13V5.51h3.24c1.03-1.01,1.73-1.84,2.1-2.48l1.56.31c-.33.49-.93,1.21-1.8,2.17h10.74v9.2c.72-.51,1.67-1.32,2.85-2.43l.86,1.02h0ZM207.24,8.95v-2.15h-13.15v2.15h13.15ZM207.24,12.61v-2.3h-13.15v2.3h13.15ZM207.24,15.73v-1.76h-13.15v3.22c3.48-.2,7.86-.69,13.15-1.46Z"/>
    <path class="cls-2" d="M232.08,10.7l-1.15.92c-1.3-2.33-3.22-4.65-5.76-6.95l1.05-.95c2.42,2.23,4.37,4.56,5.86,6.98h0ZM234.47,18.94c-.1,1.62-.25,2.96-.44,4.04-.2,1.08-.42,1.78-.68,2.11-.26.32-.6.55-1.04.67-.43.13-1.44.19-3.03.19-1.18,0-2.16-.03-2.95-.08-.78-.06-1.35-.24-1.7-.56-.35-.32-.52-.78-.52-1.38v-14.2h1.38v13.81c0,.23.07.44.21.62.14.18.29.29.43.32.14.03.78.06,1.92.06h3.32c.26.01.52-.1.78-.32.26-.22.47-.96.64-2.23.17-1.26.24-2.45.23-3.55l1.46.49h0ZM239.43,21.85l-1.44.51c-.64-2.84-1.95-6.07-3.93-9.71l1.25-.74c1.95,3.84,3.32,7.15,4.12,9.94h0ZM221.86,12.34c-1.05,4.65-2.24,8.32-3.58,11l-1.25-.87c1.45-2.6,2.6-6.12,3.45-10.55l1.38.43Z"/>
    <path class="cls-3" d="M232.08,10.7l-1.15.92c-1.3-2.33-3.22-4.65-5.76-6.95l1.05-.95c2.42,2.23,4.37,4.56,5.86,6.98h0ZM234.47,18.94c-.1,1.62-.25,2.96-.44,4.04-.2,1.08-.42,1.78-.68,2.11-.26.32-.6.55-1.04.67-.43.13-1.44.19-3.03.19-1.18,0-2.16-.03-2.95-.08-.78-.06-1.35-.24-1.7-.56-.35-.32-.52-.78-.52-1.38v-14.2h1.38v13.81c0,.23.07.44.21.62.14.18.29.29.43.32.14.03.78.06,1.92.06h3.32c.26.01.52-.1.78-.32.26-.22.47-.96.64-2.23.17-1.26.24-2.45.23-3.55l1.46.49h0ZM239.43,21.85l-1.44.51c-.64-2.84-1.95-6.07-3.93-9.71l1.25-.74c1.95,3.84,3.32,7.15,4.12,9.94h0ZM221.86,12.34c-1.05,4.65-2.24,8.32-3.58,11l-1.25-.87c1.45-2.6,2.6-6.12,3.45-10.55l1.38.43Z"/>
    <path class="cls-2" d="M296.48,13.53h-2.91v13.1h-1.26v-13.1h-4.59c0,3.5-.28,6.1-.87,7.79-.58,1.69-1.49,3.46-2.71,5.31l-1.07-.87c1.45-2.05,2.37-3.88,2.76-5.5.39-1.62.58-3.77.58-6.44v-7.8c3.47-.17,6.5-.77,9.08-1.82l.7,1.16c-2.27.93-5.09,1.54-8.46,1.84v5.09h8.77v1.25h0ZM284.74,5.35c-2.43,1.02-4.96,1.68-7.59,1.96v3.05h6.69v7.44h-6.72c-.23,3.67-.9,6.52-2.02,8.57l-1.13-.79c1.24-2.42,1.86-5.3,1.86-8.63V6.26c3.46-.38,6.23-1.07,8.31-2.08l.59,1.16h0ZM282.54,16.5v-4.89h-5.4v4.89h5.4Z"/>
    <path class="cls-3" d="M296.48,13.53h-2.91v13.1h-1.26v-13.1h-4.59c0,3.5-.28,6.1-.87,7.79-.58,1.69-1.49,3.46-2.71,5.31l-1.07-.87c1.45-2.05,2.37-3.88,2.76-5.5.39-1.62.58-3.77.58-6.44v-7.8c3.47-.17,6.5-.77,9.08-1.82l.7,1.16c-2.27.93-5.09,1.54-8.46,1.84v5.09h8.77v1.25h0ZM284.74,5.35c-2.43,1.02-4.96,1.68-7.59,1.96v3.05h6.69v7.44h-6.72c-.23,3.67-.9,6.52-2.02,8.57l-1.13-.79c1.24-2.42,1.86-5.3,1.86-8.63V6.26c3.46-.38,6.23-1.07,8.31-2.08l.59,1.16h0ZM282.54,16.5v-4.89h-5.4v4.89h5.4Z"/>
    <path class="cls-2" d="M253.97,7.42h-8.46v-1.26h3.78c-.24-.71-.58-1.5-1.02-2.37l1.24-.54c.48.92.89,1.89,1.22,2.91h3.24v1.26h0ZM267.81,10.72l-.84,1.05c-2.74-2.09-4.75-4.15-6.02-6.17-1.69,2.33-3.77,4.33-6.23,5.99l-1.02-.95c3.44-2.27,5.8-4.72,7.08-7.34l1.25.49c-.06.22-.16.43-.3.66,1.25,2.12,3.27,4.21,6.08,6.27h0ZM263.1,10.11c-1.98,2.26-4.5,4.14-7.54,5.65l-.95-1.01c3.13-1.47,5.6-3.29,7.42-5.45l1.07.82h0ZM253.08,11.08h-7.09v-1.29h7.09v1.29h0ZM265.48,13.5c-2.54,3-5.92,5.36-10.13,7.07l-.92-1.02c4.1-1.57,7.46-3.89,10.1-6.95l.95.91h0ZM253.08,14.79h-7.09v-1.26h7.09v1.26h0ZM267.68,18.01c-2.86,3.13-6.97,5.71-12.35,7.74l-.98-1.07c5.24-1.74,9.37-4.28,12.4-7.62l.92.95h0ZM252.89,25.24h-1.3v-1.4h-4.17v1.93h-1.27v-8.59h6.74v8.05h0ZM251.6,22.56v-4.06h-4.17v4.06h4.17Z"/>
    <path class="cls-3" d="M253.97,7.42h-8.46v-1.26h3.78c-.24-.71-.58-1.5-1.02-2.37l1.24-.54c.48.92.89,1.89,1.22,2.91h3.24v1.26h0ZM267.81,10.72l-.84,1.05c-2.74-2.09-4.75-4.15-6.02-6.17-1.69,2.33-3.77,4.33-6.23,5.99l-1.02-.95c3.44-2.27,5.8-4.72,7.08-7.34l1.25.49c-.06.22-.16.43-.3.66,1.25,2.12,3.27,4.21,6.08,6.27h0ZM263.1,10.11c-1.98,2.26-4.5,4.14-7.54,5.65l-.95-1.01c3.13-1.47,5.6-3.29,7.42-5.45l1.07.82h0ZM253.08,11.08h-7.09v-1.29h7.09v1.29h0ZM265.48,13.5c-2.54,3-5.92,5.36-10.13,7.07l-.92-1.02c4.1-1.57,7.46-3.89,10.1-6.95l.95.91h0ZM253.08,14.79h-7.09v-1.26h7.09v1.26h0ZM267.68,18.01c-2.86,3.13-6.97,5.71-12.35,7.74l-.98-1.07c5.24-1.74,9.37-4.28,12.4-7.62l.92.95h0ZM252.89,25.24h-1.3v-1.4h-4.17v1.93h-1.27v-8.59h6.74v8.05h0ZM251.6,22.56v-4.06h-4.17v4.06h4.17Z"/>
  </g>
</svg>