<?xml version="1.0" encoding="UTF-8"?>
<svg id="_圖層_1" data-name="圖層 1" xmlns="http://www.w3.org/2000/svg" width="200" height="148.6" viewBox="0 0 200 148.6">
  <defs>
    <style>
      .cls-1 {
        fill: #07639c;
      }

      .cls-1, .cls-2 {
        fill-rule: evenodd;
      }

      .cls-2 {
        fill: #ea99bf;
      }
    </style>
  </defs>
  <polygon class="cls-1" points="170.67 59.57 129.85 118.23 100.67 72.93 71.48 118.23 30.67 59.57 1.33 59.57 62.68 147.6 79.03 147.6 100.67 112.75 122.31 147.6 138.65 147.6 200 59.57 170.67 59.57"/>
  <path class="cls-2" d="M144.78,21.13c-1.4-9.99-9.34-17.75-18.5-19.36-10.27-1.81-20.8,2.8-25.86,13.8C95.35,4.57,84.82-.03,74.55,1.78c-9.16,1.61-17.11,9.37-18.5,19.36-3.44,24.61,25.63,37.89,44.37,45h0c18.74-7.11,47.8-20.39,44.36-45Z"/>
</svg>